<svg
  xmlns="http://www.w3.org/2000/svg"
  viewBox="0 0 64 64"
  width="140"
  height="140"
  role="img"
  aria-label="Tenant Management Icon - Organization Level Clients"
>
  <!-- Building 1 -->
  <rect x="8" y="28" width="12" height="28" rx="2" ry="2"
        fill="#ec4899" opacity="0.15" />
  <rect x="8" y="28" width="12" height="28" rx="2" ry="2"
        stroke="#db2777" stroke-width="2.5" fill="none"
        stroke-linejoin="round" stroke-linecap="round" />
  <!-- Windows Building 1 -->
  <rect x="12" y="34" width="4" height="4" fill="#db2777" />
  <rect x="12" y="42" width="4" height="4" fill="#db2777" />
  <rect x="12" y="50" width="4" height="4" fill="#db2777" />    

  <!-- Building 2 -->
  <rect x="26" y="20" width="12" height="36" rx="2" ry="2"
        fill="#ec4899" opacity="0.15" />
  <rect x="26" y="20" width="12" height="36" rx="2" ry="2"
        stroke="#db2777" stroke-width="2.5" fill="none"
        stroke-linejoin="round" stroke-linecap="round" />
  <!-- Windows Building 2 -->
  <rect x="30" y="26" width="4" height="4" fill="#db2777" />
  <rect x="30" y="34" width="4" height="4" fill="#db2777" />
  <rect x="30" y="42" width="4" height="4" fill="#db2777" />
  <rect x="30" y="50" width="4" height="4" fill="#db2777" />

  <!-- Building 3 -->
  <rect x="44" y="36" width="12" height="20" rx="2" ry="2"
        fill="#ec4899" opacity="0.15" />
  <rect x="44" y="36" width="12" height="20" rx="2" ry="2"
        stroke="#db2777" stroke-width="2.5" fill="none"
        stroke-linejoin="round" stroke-linecap="round" />
  <!-- Windows Building 3 -->
  <rect x="48" y="42" width="4" height="4" fill="#db2777" />
  <rect x="48" y="50" width="4" height="4" fill="#db2777" />

  <!-- User group (organization users) -->
  <!-- User 1 -->
  <circle cx="20" cy="12" r="6"
          stroke="#db2777" stroke-width="2.5" fill="none"
          stroke-linejoin="round" stroke-linecap="round" />
  <path d="M14 20c0-3 12-3 12 0v4H14v-4z"
        stroke="#db2777" stroke-width="2.5" fill="none"
        stroke-linejoin="round" stroke-linecap="round" />

  <!-- User 2 -->
  <circle cx="40" cy="12" r="6"
          stroke="#db2777" stroke-width="2.5" fill="none"
          stroke-linejoin="round" stroke-linecap="round" />
  <path d="M34 20c0-3 12-3 12 0v4H34v-4z"
        stroke="#db2777" stroke-width="2.5" fill="none"
        stroke-linejoin="round" stroke-linecap="round" />
</svg>
